<svg xmlns="http://www.w3.org/2000/svg" xmlns:xlink="http://www.w3.org/1999/xlink" version="1.1" style="enable-background:new 0 0 559.464 559.464;" xml:space="preserve" width="559.4639892578125" height="559.4639892578125"><rect id="backgroundrect" width="100%" height="100%" x="0" y="0" fill="none" stroke="none"/>
















<g class="currentLayer" style=""><title>Layer 1</title><g id="svg_1" class="selected" fill="#e98a8a" fill-opacity="1">
	<g id="svg_2" fill="#e98a8a" fill-opacity="1">
		<g id="group-10svg" fill="#e98a8a" fill-opacity="1">
			<path id="path-1" d="M352.8734321193695,419.16 c-21.244,0 -41.59,-10.362 -60.544,-30.842 c-15.318,-16.548000000000002 -32.198,-25.168 -50.183,-25.617 c-33.042,-1.024 -60.832,25.805 -61.11,26.075 c-5.307,5.199 -13.827,5.118 -19.026,-0.18000000000000002 c-5.199,-5.298 -5.154,-13.792 0.135,-19.008 c1.437,-1.428 35.79,-34.515 80.433,-33.823 c25.608,0.5660000000000001 49.007,12.095 69.514,34.254 c14.734,15.911 29.72,23.282 44.23,22.043 c28.023,-2.46 49.123,-34.802 49.339,-35.134 c4.014,-6.249 12.337,-8.081 18.595,-4.067 c6.249,4.005 8.09,12.301 4.112,18.559 c-1.1400000000000001,1.787 -28.265,43.736 -69.523,47.462 C356.8424321193695,419.061 354.8574321193695,419.16 352.8734321193695,419.16 z" fill="#e98a8a" fill-opacity="1"/>
			<path id="path-2" d="M402.8584321193695,206.415 c0,17.796 -14.411,32.216 -32.198,32.216 c-17.778,0 -32.207,-14.42 -32.207,-32.216 c0,-17.787 14.429,-32.207 32.207,-32.207 C388.4474321193695,174.208 402.8584321193695,188.628 402.8584321193695,206.415 z" fill="#e98a8a" fill-opacity="1"/>
			<path id="path-3" d="M217.7054321193695,206.415 c0,17.796 -14.411,32.216 -32.207,32.216 c-17.778,0 -32.198,-14.42 -32.198,-32.216 c0,-17.787 14.42,-32.207 32.198,-32.207 C203.2944321193695,174.208 217.7054321193695,188.628 217.7054321193695,206.415 z" fill="#e98a8a" fill-opacity="1"/>
			<path id="path-4" d="M278.5014321193695,559.464 c-154.212,0 -279.673,-125.488 -279.673,-279.727 C-1.1715678806304932,125.488 124.28943211936951,0 278.5014321193695,0 s279.664,125.488 279.664,279.736 C558.1664321193695,433.975 432.7134321193695,559.464 278.5014321193695,559.464 zM278.5014321193695,26.946 c-139.361,0 -252.737,113.403 -252.737,252.791 s113.376,252.791 252.737,252.791 c139.352,0 252.728,-113.403 252.728,-252.791 S417.85343211936953,26.946 278.5014321193695,26.946 z" fill="#e98a8a" fill-opacity="1"/>
		</g>
	</g>
</g><g id="svg_3">
</g><g id="svg_4">
</g><g id="svg_5">
</g><g id="svg_6">
</g><g id="svg_7">
</g><g id="svg_8">
</g><g id="svg_9">
</g><g id="svg_10">
</g><g id="svg_11">
</g><g id="svg_12">
</g><g id="svg_13">
</g><g id="svg_14">
</g><g id="svg_15">
</g><g id="svg_16">
</g><g id="svg_17">
</g></g></svg>