<svg xmlns="http://www.w3.org/2000/svg" xmlns:xlink="http://www.w3.org/1999/xlink" version="1.1" style="enable-background:new 0 0 567.41 567.41;" xml:space="preserve" width="567.41" height="567.41"><rect id="backgroundrect" width="100%" height="100%" x="0" y="0" fill="none" stroke="none"/>
















<g class="currentLayer" style=""><title>Layer 1</title><g id="svg_1" class="selected" fill="#990000" fill-opacity="1">
	<path d="M384.039,179.72543211936951 c-16.835,0 -30.492,13.648 -30.492,30.483 c0,16.844 13.657,30.501 30.492,30.501 c16.835,0 30.483,-13.657 30.483,-30.501 C414.522,193.3734321193695 400.874,179.72543211936951 384.039,179.72543211936951 z" id="svg_2" fill="#990000" fill-opacity="1"/>
	<path d="M387.667,140.1104321193695 c-40.647,0 -73.707,33.078 -73.707,73.734 s33.06,73.734 73.707,73.734 s73.716,-33.078 73.716,-73.734 S428.314,140.1104321193695 387.667,140.1104321193695 zM387.667,260.6334321193695 c-25.787,0 -46.771,-20.993 -46.771,-46.789 s20.984,-46.789 46.771,-46.789 c25.796,0 46.78,20.993 46.78,46.789 S413.463,260.6334321193695 387.667,260.6334321193695 z" id="svg_3" fill="#990000" fill-opacity="1"/>
	<path d="M261.047,213.84443211936951 c0,-40.656 -33.06,-73.734 -73.716,-73.734 c-40.647,0 -73.716,33.078 -73.716,73.734 s33.069,73.734 73.716,73.734 C227.987,287.5794321193695 261.047,254.5014321193695 261.047,213.84443211936951 zM187.33,260.6334321193695 c-25.796,0 -46.78,-20.993 -46.78,-46.789 s20.984,-46.789 46.78,-46.789 c25.796,0 46.78,20.993 46.78,46.789 S213.127,260.6334321193695 187.33,260.6334321193695 z" id="svg_4" fill="#990000" fill-opacity="1"/>
	<path d="M183.703,179.72543211936951 c-16.835,0 -30.483,13.648 -30.483,30.483 c0,16.844 13.648,30.501 30.483,30.501 c16.835,0 30.483,-13.657 30.483,-30.501 C214.186,193.3734321193695 200.538,179.72543211936951 183.703,179.72543211936951 z" id="svg_5" fill="#990000" fill-opacity="1"/>
	<path d="M387.065,321.0164321193695 c-5.764,-4.705 -14.24,-3.834 -18.945,1.939 c-6.947,8.532 -14.716,22.209 -18.413,38.157 c-44.361,-28.812 -89.26,-18.283 -117.337,-2.693 c-3.908,-14.795 -11.196,-27.424 -17.753,-35.473 c-4.678,-5.746 -13.127,-6.591 -18.892,-1.939 c-5.773,4.66 -6.662,13.136 -2.02,18.918 c1.302,1.625 31.489,40.1 0.7360000000000001,72.244 c-5.136,5.378 -4.956,13.908 0.42200000000000004,19.053 c2.613,2.496 5.962,3.7350000000000003 9.311,3.7350000000000003 c3.547,0 7.084,-1.401 9.733,-4.157 c12.794,-13.377 18.874,-27.751 20.696,-41.693 c10.942,-8.305 59.432,-40.223 110.369,1.917 c1.18,0.974 2.478,1.705 3.833,2.216 c2.42,12.629 8.494,25.495 20.024,37.551 c2.649,2.766 6.195,4.166 9.733,4.166 c3.349,0 6.698,-1.239 9.311,-3.7350000000000003 c5.378,-5.145 5.558,-13.675 0.42200000000000004,-19.044 c-30.708,-32.117 -0.6380000000000001,-70.52 0.7360000000000001,-72.244 C393.7,334.1704321193695 392.829,325.7034321193695 387.065,321.0164321193695 z" id="svg_6" fill="#990000" fill-opacity="1"/>
	<path d="M283.7,-1.2345678806304932 C127.307,-1.2345678806304932 0.06700000000000002,126.03143211936951 0.06700000000000002,282.4704321193695 c0,156.43 127.239,283.705 283.633,283.705 c156.403,0 283.642,-127.275 283.642,-283.705 C567.342,126.03143211936951 440.103,-1.2345678806304932 283.7,-1.2345678806304932 zM283.7,539.2294321193696 c-141.543,0 -256.696,-115.181 -256.696,-256.759 S142.158,25.702432119369508 283.7,25.702432119369508 s256.706,115.19 256.706,256.768 S425.243,539.2294321193696 283.7,539.2294321193696 z" id="svg_7" fill="#990000" fill-opacity="1"/>
</g><g id="svg_8">
</g><g id="svg_9">
</g><g id="svg_10">
</g><g id="svg_11">
</g><g id="svg_12">
</g><g id="svg_13">
</g><g id="svg_14">
</g><g id="svg_15">
</g><g id="svg_16">
</g><g id="svg_17">
</g><g id="svg_18">
</g><g id="svg_19">
</g><g id="svg_20">
</g><g id="svg_21">
</g><g id="svg_22">
</g></g></svg>